<svg width="237" height="136" viewBox="0 0 237 136" fill="none" xmlns="http://www.w3.org/2000/svg">
<path opacity="0.6" fill-rule="evenodd" clip-rule="evenodd" d="M211.804 59.2935C220.963 53.6621 227.071 43.548 227.071 32.0073C227.071 14.3302 212.741 0 195.064 0C177.386 0 163.056 14.3302 163.056 32.0073C163.056 41.1569 166.895 49.4098 173.051 55.2431C172.223 56.0971 171.457 57.0106 170.758 57.9765C167.721 56.4311 164.282 55.5599 160.641 55.5599C149.689 55.5599 140.577 63.4387 138.665 73.8374C134.788 69.3039 129.027 66.4303 122.594 66.4303C112.911 66.4303 104.748 72.942 102.246 81.8255C99.2932 79.7362 95.6873 78.5086 91.7946 78.5086C88.1669 78.5086 84.7883 79.5748 81.9549 81.4109C78.2386 78.82 73.7197 77.3007 68.846 77.3007C56.1718 77.3007 45.8973 87.5752 45.8973 100.249C45.8973 112.924 56.1718 123.198 68.846 123.198C76.3019 123.198 82.9273 119.642 87.1191 114.134C88.6107 114.532 90.1779 114.743 91.7946 114.743C99.4024 114.743 105.915 110.054 108.6 103.408C109.584 104.279 110.65 105.059 111.785 105.735C111.744 106.317 111.724 106.904 111.724 107.496C111.724 121.171 122.809 132.257 136.484 132.257C150.159 132.257 161.244 121.171 161.244 107.496C161.244 104.973 160.867 102.538 160.166 100.244C160.324 100.248 160.482 100.249 160.641 100.249C167.137 100.249 172.985 97.4774 177.068 93.0519C181.005 95.6907 185.741 97.2298 190.836 97.2298C204.511 97.2298 215.597 86.1442 215.597 72.4694C215.597 67.627 214.206 63.1093 211.804 59.2935ZM22.9487 118.367C35.6228 118.367 45.8973 108.092 45.8973 95.4181C45.8973 82.7439 35.6228 72.4694 22.9487 72.4694C10.2745 72.4694 0 82.7439 0 95.4181C0 108.092 10.2745 118.367 22.9487 118.367Z" fill="#F3FDFF"/>
<path fill-rule="evenodd" clip-rule="evenodd" d="M222.788 61.6351C230.868 55.8252 236.13 46.3424 236.13 35.6307C236.13 17.9536 221.799 3.62341 204.122 3.62341C186.445 3.62341 172.115 17.9536 172.115 35.6307C172.115 46.3424 177.377 55.8252 185.457 61.6351C183.042 64.4028 181.233 67.7125 180.237 71.3577C176.699 69.0074 172.453 67.6381 167.888 67.6381C156.78 67.6381 147.565 75.7427 145.835 86.361C145.738 86.3599 145.64 86.3594 145.543 86.3594C144.25 86.3594 142.98 86.4584 141.741 86.6494C138.007 80.6727 131.369 76.6968 123.802 76.6968C114.837 76.6968 107.175 82.2787 104.102 90.1568C101.036 87.7765 97.1848 86.3594 93.0025 86.3594C88.418 86.3594 84.2313 88.0621 81.0402 90.8697C76.9236 86.9522 71.3539 84.5476 65.2225 84.5476C58.8709 84.5476 53.122 87.128 48.9669 91.2976C45.2194 83.7197 37.4102 78.5085 28.3839 78.5085C15.7097 78.5085 5.43524 88.783 5.43524 101.457C5.43524 114.131 15.7097 124.406 28.3839 124.406C34.7355 124.406 40.4844 121.825 44.6395 117.656C48.387 125.234 56.1962 130.445 65.2225 130.445C73.1384 130.445 80.1182 126.437 84.2433 120.34C86.8394 121.776 89.8254 122.594 93.0025 122.594C99.9494 122.594 105.983 118.684 109.023 112.945C112.438 116.286 116.982 118.478 122.029 118.897C125.29 128.762 134.585 135.88 145.543 135.88C158.855 135.88 169.714 125.374 170.28 112.201C178.941 111.279 186.124 105.408 188.947 97.4708C193.138 100.726 198.404 102.665 204.122 102.665C217.797 102.665 228.883 91.5794 228.883 77.9046C228.883 71.6769 226.584 65.9863 222.788 61.6351Z" fill="#F3FDFF"/>
</svg>

