<svg width="107" height="50" viewBox="0 0 107 50" fill="none" xmlns="http://www.w3.org/2000/svg">
<path d="M53.2118 12.4712C52.8607 12.8214 52.4297 13.0091 51.9242 13.0294C52.4297 13.0548 52.8553 13.2375 53.2118 13.5877C53.563 13.9379 53.7386 14.354 53.7386 14.8412C53.7386 14.354 53.9142 13.9379 54.2654 13.5877C54.6165 13.2375 55.0422 13.0497 55.5477 13.0294C55.0422 13.0091 54.6165 12.8214 54.2654 12.4712C53.9142 12.121 53.7386 11.7049 53.7386 11.2177C53.7386 11.7049 53.563 12.121 53.2118 12.4712Z" fill="white"/>
<path d="M58.8217 44.0607C58.5876 44.2941 58.3003 44.4193 57.9633 44.4329C58.3003 44.4498 58.5841 44.5716 58.8217 44.805C59.0559 45.0385 59.1729 45.3159 59.1729 45.6407C59.1729 45.3159 59.29 45.0385 59.5241 44.805C59.7582 44.5716 60.042 44.4464 60.379 44.4329C60.042 44.4193 59.7582 44.2941 59.5241 44.0607C59.29 43.8273 59.1729 43.5498 59.1729 43.225C59.1729 43.5498 59.0559 43.8273 58.8217 44.0607Z" fill="white"/>
<path d="M26.3701 3.68995C25.4337 4.62373 24.2844 5.12445 22.9364 5.17859C24.2844 5.24625 25.4195 5.73344 26.3701 6.66722C27.3066 7.601 27.7748 8.71071 27.7748 10.0099C27.7748 8.71071 28.2431 7.601 29.1795 6.66722C30.116 5.73344 31.2511 5.23272 32.599 5.17859C31.2511 5.12445 30.116 4.62373 29.1795 3.68995C28.2431 2.75617 27.7748 1.64646 27.7748 0.34729C27.7748 1.64646 27.3066 2.75617 26.3701 3.68995Z" fill="white"/>
<path d="M90.9887 43.5481C90.0522 44.4819 88.9029 44.9826 87.555 45.0367C88.9029 45.1044 90.0381 45.5916 90.9887 46.5254C91.9252 47.4592 92.3934 48.5689 92.3934 49.868C92.3934 48.5689 92.8616 47.4592 93.7981 46.5254C94.7346 45.5916 95.8697 45.0909 97.2176 45.0367C95.8697 44.9826 94.7346 44.4819 93.7981 43.5481C92.8616 42.6143 92.3934 41.5046 92.3934 40.2054C92.3934 41.5046 91.9252 42.6143 90.9887 43.5481Z" fill="white"/>
<path d="M2.30852 20.136C1.84029 20.6029 1.26564 20.8532 0.591675 20.8803C1.26564 20.9141 1.8332 21.1577 2.30852 21.6246C2.77675 22.0915 3.01087 22.6464 3.01087 23.296C3.01087 22.6464 3.24499 22.0915 3.71322 21.6246C4.18145 21.1577 4.749 20.9074 5.42297 20.8803C4.749 20.8532 4.18145 20.6029 3.71322 20.136C3.24499 19.6691 3.01087 19.1142 3.01087 18.4647C3.01087 19.1142 2.77675 19.6691 2.30852 20.136Z" fill="white"/>
<path d="M103.162 20.136C102.694 20.6029 102.119 20.8532 101.445 20.8803C102.119 20.9141 102.686 21.1577 103.162 21.6246C103.63 22.0915 103.864 22.6464 103.864 23.296C103.864 22.6464 104.098 22.0915 104.567 21.6246C105.035 21.1577 105.602 20.9074 106.276 20.8803C105.602 20.8532 105.035 20.6029 104.567 20.136C104.098 19.6691 103.864 19.1142 103.864 18.4647C103.864 19.1142 103.63 19.6691 103.162 20.136Z" fill="white"/>
<path d="M27.4183 38.0216C27.1842 38.255 26.8969 38.3802 26.5599 38.3937C26.8969 38.4107 27.1807 38.5325 27.4183 38.7659C27.6524 38.9993 27.7695 39.2768 27.7695 39.6016C27.7695 39.2768 27.8865 38.9993 28.1207 38.7659C28.3548 38.5325 28.6386 38.4073 28.9755 38.3937C28.6386 38.3802 28.3548 38.255 28.1207 38.0216C27.8865 37.7881 27.7695 37.5107 27.7695 37.1859C27.7695 37.5107 27.6524 37.7881 27.4183 38.0216Z" fill="white"/>
<path d="M82.3743 24.7355C82.1402 24.969 81.8529 25.0941 81.5159 25.1077C81.8529 25.1246 82.1366 25.2464 82.3743 25.4798C82.6084 25.7133 82.7255 25.9907 82.7255 26.3155C82.7255 25.9907 82.8425 25.7133 83.0767 25.4798C83.3108 25.2464 83.5945 25.1212 83.9315 25.1077C83.5945 25.0941 83.3108 24.969 83.0767 24.7355C82.8425 24.5021 82.7255 24.2246 82.7255 23.8998C82.7255 24.2246 82.6084 24.5021 82.3743 24.7355Z" fill="white"/>
<path d="M13.3536 47.4981C13.0025 47.8482 12.5715 48.036 12.066 48.0563C12.5715 48.0817 12.9972 48.2644 13.3536 48.6145C13.7048 48.9647 13.8804 49.3809 13.8804 49.868C13.8804 49.3809 14.056 48.9647 14.4072 48.6145C14.7583 48.2644 15.184 48.0766 15.6895 48.0563C15.184 48.036 14.7583 47.8482 14.4072 47.4981C14.056 47.1479 13.8804 46.7318 13.8804 46.2446C13.8804 46.7318 13.7048 47.1479 13.3536 47.4981Z" fill="white"/>
</svg>

